<?xml version="1.0" encoding="UTF-8"?>
<svg id="Layer_1" xmlns="http://www.w3.org/2000/svg" version="1.1" viewBox="0 0 1000 640">
  <!-- Generator: Adobe Illustrator 29.0.0, SVG Export Plug-In . SVG Version: 2.1.0 Build 186)  -->
  <defs>
    <style>
      .st0 {
        fill: #fff;
      }
    </style>
  </defs>
  <path class="st0" d="M992.5188166,6.4003396H7.4811834v175.2659887h985.0376332V6.4003396ZM384.1381256,119.3838285H72.6925776v-50.7003655h311.445548v50.7003655ZM782.9653705,119.3838285h-50.699742v-50.7003655h50.699742v50.7003655ZM859.0168542,119.3838285h-50.7009891v-50.7003655h50.7009891v50.7003655ZM938.1899144,119.3838285h-50.7009891v-50.7003655h50.7009891v50.7003655Z"/>
  <path class="st0" d="M992.5188166,232.3673174H7.4811834v175.2659887h985.0376332v-175.2659887ZM384.1381256,345.3501828H72.6925776v-50.7003655h311.445548v50.7003655ZM782.9653705,345.3501828h-50.699742v-50.7003655h50.699742v50.7003655ZM859.0168542,345.3501828h-50.7009891v-50.7003655h50.7009891v50.7003655ZM938.1899144,345.3501828h-50.7009891v-50.7003655h50.7009891v50.7003655Z"/>
  <path class="st0" d="M7.4811834,633.5996604h985.0376332v-175.2659887H7.4811834v175.2659887ZM887.4889253,520.6161715h50.7009891v50.7009891h-50.7009891v-50.7009891ZM808.315865,520.6161715h50.7009891v50.7009891h-50.7009891v-50.7009891ZM732.2656285,520.6161715h50.699742v50.7009891h-50.699742v-50.7009891ZM72.6925776,520.6161715h311.445548v50.7009891H72.6925776v-50.7009891Z"/>
</svg>