<?xml version="1.0" encoding="UTF-8"?>
<svg id="Layer_1" xmlns="http://www.w3.org/2000/svg" version="1.1" viewBox="0 0 900 1000">
  <!-- Generator: Adobe Illustrator 29.0.0, SVG Export Plug-In . SVG Version: 2.1.0 Build 186)  -->
  <defs>
    <style>
      .st0 {
        fill: none;
      }

      .st1 {
        fill: #50c61e;
      }

      .st2 {
        fill: #0d92ff;
      }

      .st3 {
        fill: #303030;
      }

      .st4 {
        fill: #ef0303;
      }
    </style>
  </defs>
  <path class="st0" d="M402.6682065,782.8934723c-4.1247116-2.1815316-8.7787203-3.6306638-13.9855253-4.3557895-5.2157572-.7318398-10.6016056-1.090486-16.1754495-1.090486h-27.253758v60.6794768h26.1627125c5.8133144,0,11.3860393-.4783815,16.7204128-1.4496918,5.3265403-.9640366,10.1081173-2.6671867,14.3514452-5.0876293,4.2366138-2.4204426,7.5679395-5.633152,9.989501-9.6302953,2.4204426-3.9971432,3.6379375-9.0249049,3.6379375-15.0838444,0-6.0511064-1.2174949-11.0195599-3.6379375-14.8969679-2.4215616-3.8701344-5.6935792-6.9032409-9.8093387-9.0847725Z"/>
  <path class="st1" d="M891.9243585,7.528812H8.0756415v157.2616254h883.848717V7.528812ZM346.0401455,108.9059659H66.588134v-45.4921229h279.4520115v45.4921229ZM703.897487,108.9059659h-45.4915634v-45.4921229h45.4915634v45.4921229ZM772.1365106,108.9059659h-45.4926824v-45.4921229h45.4926824v45.4921229ZM843.1764438,108.9059659h-45.4926824v-45.4921229h45.4926824v45.4921229Z"/>
  <path class="st2" d="M891.9243585,210.2831198H8.0756415v157.2616254h883.848717v-157.2616254ZM346.0401455,311.6597141H66.588134v-45.4921229h279.4520115v45.4921229ZM703.897487,311.6597141h-45.4915634v-45.4921229h45.4915634v45.4921229ZM772.1365106,311.6597141h-45.4926824v-45.4921229h45.4926824v45.4921229ZM843.1764438,311.6597141h-45.4926824v-45.4921229h45.4926824v45.4921229Z"/>
  <path class="st4" d="M8.0756415,570.2984934h883.848717v-157.2616254H8.0756415v157.2616254ZM797.6837615,468.9213395h45.4926824v45.4926824h-45.4926824v-45.4926824ZM726.6438282,468.9213395h45.4926824v45.4926824h-45.4926824v-45.4926824ZM658.4059236,468.9213395h45.4915634v45.4926824h-45.4915634v-45.4926824ZM66.588134,468.9213395h279.4520115v45.4926824H66.588134v-45.4926824Z"/>
  <polygon class="st3" points="169.4921921 824.6861116 69.194334 824.6861116 69.194334 727.2949107 7.0584514 727.2949107 7.0584514 984.5718413 69.194334 984.5718413 69.194334 877.0126556 169.4921921 877.0126556 169.4921921 984.5718413 231.6280748 984.5718413 231.6280748 727.2949107 169.4921921 727.2949107 169.4921921 824.6861116"/>
  <path class="st3" d="M449.0023927,744.918933c-9.084213-6.1714012-19.7451267-10.65364-31.9827411-13.440562-12.2297812-2.7863625-25.3793978-4.1834603-39.4242311-4.1834603h-94.4778295v257.2769306h62.1358827v-97.025281h30.8928145c13.3197077,0,26.1627125-1.4491323,38.512229-4.35523,12.3573496-2.9066572,23.2566148-7.5086313,32.7078667-13.8137555,9.4434188-6.2905769,16.9520501-14.5909157,22.5326082-24.8859095,5.5660108-10.2949938,8.3523732-22.951122,8.3523732-37.9750989,0-14.7772327-2.6073191-27.1944499-7.8141241-37.2499732-5.207924-10.0488092-12.3495165-18.169545-21.4348485-24.3476603ZM412.4775452,821.9590572c-2.4215616,3.9971432-5.7528873,7.2098527-9.989501,9.6302953-4.2433279,2.4204426-9.0249049,4.1235926-14.3514452,5.0876293-5.3343734.9713103-10.9070983,1.4496918-16.7204128,1.4496918h-26.1627125v-60.6794768h27.253758c5.5738439,0,10.9596923.3586463,16.1754495,1.090486,5.206805.7251257,9.8608136,2.1742579,13.9855253,4.3557895,4.1157595,2.1815316,7.3877771,5.2146382,9.8093387,9.0847725,2.4204426,3.877408,3.6379375,8.8458615,3.6379375,14.8969679,0,6.0589396-1.2174949,11.0867012-3.6379375,15.0838444Z"/>
  <path class="st3" d="M577.7121956,777.2603203c3.3839197-2.0545227,7.2020196-3.4516205,11.4453475-4.1761866,4.2366138-.7245661,8.4128004-1.090486,12.536393-1.090486,7.9942865,0,16.2873516,2.0019287,24.8937426,5.9990719,8.5907247,3.9971432,15.5611069,9.3908248,20.8954803,16.1670568l39.6043935-41.7848061c-11.3860393-10.4147291-24.6542721-18.2892803-39.79127-23.6236537-15.1437121-5.3265403-29.9808124-7.993727-44.5113009-7.993727-12.1178791,0-24.1093088,1.5168331-35.9731702,4.542666-11.8784086,3.0331066-22.5314891,7.8141241-31.9827411,14.3514452-9.4434188,6.5445947-17.0784995,14.8969679-22.8906949,25.072786-5.8133144,10.1752585-8.7194121,22.4128729-8.7194121,36.7044504,0,11.6249503,1.8754793,21.5014303,5.633152,29.6148925,3.7509586,8.1212954,8.7194121,15.0239768,14.8975274,20.7097228,6.1781153,5.7002933,13.2010915,10.3621351,21.0756427,13.9927989,7.8667181,3.6312234,15.9281458,6.7835057,24.1607838,9.4506924,8.4799416,2.6671867,16.0478811,5.1474969,22.7116515,7.4487637,6.6637704,2.3007073,12.2297812,4.8487183,16.7204128,7.6278071,4.4749652,2.786922,7.9260262,5.8798962,10.3543019,9.2638159,2.4204426,3.399586,3.6312234,7.515905,3.6312234,12.3573496,0,5.0876293-.9713103,9.4506924-2.9060977,13.0813562-1.9426206,3.638497-4.5421065,6.5445947-7.80741,8.7261263-3.2720176,2.1742579-7.0901175,3.7576727-11.4531806,4.7217094-4.35523.9713103-8.8458615,1.4491323-13.440562,1.4491323-10.1752585,0-20.4098252-2.6000454-30.704819-7.8068505-10.3028269-5.2073645-18.5958921-11.684818-24.8937426-19.4469076l-40.7021532,41.4261598c11.3860393,11.8716945,25.6781764,21.0236083,42.8842443,27.4411941,17.1982347,6.4097527,35.0007409,9.6297358,53.4164705,9.6297358,12.588987,0,24.8266013-1.7031501,36.6982958-5.0876293,11.8705755-3.3917528,22.4050398-8.5991174,31.6168212-15.6293672,9.2039483-7.0224167,16.5335362-15.9281458,21.9865259-26.7087948,5.4462755-10.7728158,8.1733299-23.5553934,8.1733299-38.3331856,0-12.8424453-2.5401778-23.5632266-7.6272476-32.1623439-5.0881888-8.5991174-11.5136077-15.8089701-19.2605906-21.6211655-7.754816-5.8121954-16.3544929-10.4740372-25.8046258-13.9927989-9.4434188-3.5042145-18.5276318-6.7169239-27.253758-9.6302953-6.0594991-1.9347874-11.5057746-3.8102667-16.3466597-5.6258784-4.8487183-1.8228853-9.032738-3.8175404-12.536393-5.9990719-3.5193212-2.1815316-6.1781153-4.7211499-8.0010006-7.6278071-1.8161712-2.9133713-2.7203402-6.5445947-2.7203402-10.9076578,0-5.0876293,1.1436395-9.2638159,3.45218-12.536393,2.3007073-3.2641844,5.1396638-5.9319307,8.5392497-7.993727Z"/>
  <polygon class="st3" points="892.9415486 780.3532945 892.9415486 727.2949107 723.604567 727.2949107 723.604567 984.5718413 785.016443 984.5718413 785.016443 884.6404627 884.5813423 884.6404627 884.5813423 833.4044047 785.016443 833.4044047 785.016443 780.3532945 892.9415486 780.3532945"/>
</svg>