<?xml version="1.0" encoding="UTF-8"?>
<svg id="Layer_1" xmlns="http://www.w3.org/2000/svg" version="1.1" viewBox="0 0 885 1000">
  <!-- Generator: Adobe Illustrator 29.0.0, SVG Export Plug-In . SVG Version: 2.1.0 Build 186)  -->
  <defs>
    <style>
      .st0 {
        fill: none;
      }
    </style>
  </defs>
  <path class="st0" d="M333.3263483,963.4892868c0-2.4154269-.7091492-4.3381391-2.1328472-5.7559875-1.423698-1.4241479-3.7491313-2.1328472-6.9816997-2.1328472h-7.8888347v16.005803h7.9491304c3.154274,0,5.4491095-.7568458,6.8917061-2.2768368,1.4416967-1.5199911,2.162545-3.4670016,2.162545-5.8401315Z"/>
  <path class="st0" d="M404.4347527,630.5050481c-3.3171623-1.7544243-7.0599941-2.9198408-11.247394-3.502999-4.1945994-.5885578-8.525989-.8769872-13.0085678-.8769872h-21.9179294v48.7994531h21.0404923c4.675165,0,9.1568438-.3847224,13.4468364-1.1658665,4.283693-.7752944,8.1291175-2.1449963,11.5416729-4.0915568,3.4071558-1.9465605,6.0862639-4.5302754,8.0337243-7.744845,1.9465605-3.2145696,2.9256903-7.2579799,2.9256903-12.1306807,0-4.8664013-.9791298-8.8621149-2.9256903-11.9803915-1.9474604-3.112427-4.5788719-5.5517022-7.8888347-7.3061264Z"/>
  <path class="st0" d="M397.4224552,882.7259242c0-2.4149769-.7091492-4.3376892-2.1328472-5.7555376-1.423698-1.4241479-3.7491313-2.1332971-6.9816997-2.1332971h-7.8888347v16.006253h7.9491304c3.154274,0,5.4491095-.7568458,6.8917061-2.2772868,1.4416967-1.5199911,2.162545-3.4665516,2.162545-5.8401315Z"/>
  <path class="st0" d="M300.8935724,874.7772438h-8.4107973v15.6035319h8.4107973c3.2748653,0,5.6002987-.6911505,6.9879992-2.078851,1.381401-1.381851,2.0725515-3.2807149,2.0725515-5.6956919,0-2.4514243-.6911505-4.3741366-2.0725515-5.7559875-1.3877006-1.3823009-3.7131339-2.0730015-6.9879992-2.0730015Z"/>
  <polygon class="st0" points="269.5785164 977.8608069 284.0710779 977.8608069 276.8247971 957.6433057 269.5785164 977.8608069"/>
  <polygon class="st0" points="641.1060931 876.8799431 633.8598123 897.0978943 648.3523738 897.0978943 641.1060931 876.8799431"/>
  <path class="st0" d="M78.2036302,957.1442914c-2.2777368-1.339554-4.9208474-2.0122558-7.9194325-2.0122558-2.9976852,0-5.6353962.6727018-7.9185326,2.0122558-2.2768368,1.3463035-4.0497098,3.2627162-5.317269,5.7559875-1.2617096,2.4937213-1.898414,5.4918565-1.898414,9.000705s.6367044,6.5128333,1.898414,9.0304029c1.2675592,2.51127,3.0404321,4.4402818,5.317269,5.7798358,2.2831364,1.3458536,4.9208474,2.0190053,7.9185326,2.0190053,2.9985851,0,5.6416957-.6731518,7.9194325-2.0190053,2.2768368-1.339554,4.0497098-3.2685658,5.316819-5.7798358,1.2680091-2.5175696,1.8988639-5.5215543,1.8988639-9.0304029s-.6308548-6.5069837-1.8988639-9.000705c-1.2671092-2.4932713-3.0399822-4.409684-5.316819-5.7559875Z"/>
  <path class="st0" d="M473.27082,905.9478601c2.2777368,1.3463035,4.9154478,2.0190053,7.9194325,2.0190053,2.9976852,0,5.6353962-.6727018,7.9185326-2.0190053,2.2768368-1.339554,4.0497098-3.2681158,5.3177189-5.7798358,1.2617096-2.5175696,1.897964-5.5215543,1.897964-9.0304029s-.6362544-6.5069837-1.897964-9.000255c-1.2680091-2.4932713-3.0408821-4.410134-5.3177189-5.7559875-2.2831364-1.340004-4.9208474-2.0127058-7.9185326-2.0127058-3.0039847,0-5.6416957.6727018-7.9194325,2.0127058-2.2768368,1.3458536-4.0551094,3.2627162-5.316819,5.7559875-1.2680091,2.4932713-1.8988639,5.4914065-1.8988639,9.000255s.6308548,6.5128333,1.8988639,9.0304029c1.2617096,2.51172,3.0399822,4.4402818,5.316819,5.7798358Z"/>
  <path class="st0" d="M649.1326179,957.5290139c-2.3551312-1.3278548-5.5211044-1.9884075-9.4925198-1.9884075h-7.5405597v32.7207553h7.5405597c3.9714154,0,7.1373885-.6488535,9.4925198-1.9587096,2.3560312-1.3035566,4.0443102-3.1722727,5.0531379-5.6056983,1.0160272-2.4334256,1.5199911-5.3294181,1.5199911-8.6821278,0-3.4242546-.5039639-6.3683936-1.5199911-8.819818-1.0088277-2.4572739-2.6971067-4.3439887-5.0531379-5.665994Z"/>
  <path class="st0" d="M494.4858997,957.1442914c-2.2768368-1.339554-4.9208474-2.0122558-7.9185326-2.0122558s-5.6353962.6727018-7.9185326,2.0122558c-2.2777368,1.3463035-4.0497098,3.2627162-5.3177189,5.7559875-1.2617096,2.4937213-1.8988639,5.4918565-1.8988639,9.000705s.6371543,6.5128333,1.8988639,9.0304029c1.2680091,2.51127,3.0399822,4.4402818,5.3177189,5.7798358,2.2831364,1.3458536,4.9208474,2.0190053,7.9185326,2.0190053s5.6416957-.6731518,7.9185326-2.0190053c2.2777368-1.339554,4.0497098-3.2685658,5.3177189-5.7798358,1.2680091-2.5175696,1.8988639-5.5215543,1.8988639-9.0304029s-.6308548-6.5069837-1.8988639-9.000705c-1.2680091-2.4932713-3.0399822-4.409684-5.3177189-5.7559875Z"/>
  <path class="st0" d="M541.7712113,882.7259242c0-2.4149769-.7091492-4.3376892-2.1328472-5.7555376-1.423698-1.4241479-3.7491313-2.1332971-6.9816997-2.1332971h-7.8888347v16.006253h7.9491304c3.154274,0,5.4491095-.7568458,6.8917061-2.2772868,1.4416967-1.5199911,2.162545-3.4665516,2.162545-5.8401315Z"/>
  <polygon class="st0" points="684.8465587 977.8608069 699.3382202 977.8608069 692.0919395 957.6433057 684.8465587 977.8608069"/>
  <path class="st0" d="M817.2621699,957.1442914c-2.2831364-1.339554-4.9208474-2.0122558-7.9185326-2.0122558-3.0039847,0-5.6416957.6727018-7.9185326,2.0122558-2.2777368,1.3463035-4.0560093,3.2627162-5.3177189,5.7559875-1.2680091,2.4937213-1.8988639,5.4918565-1.8988639,9.000705s.6308548,6.5128333,1.8988639,9.0304029c1.2617096,2.51127,3.0399822,4.4402818,5.3177189,5.7798358,2.2768368,1.3458536,4.9145478,2.0190053,7.9185326,2.0190053,2.9976852,0,5.6353962-.6731518,7.9185326-2.0190053,2.2777368-1.339554,4.0497098-3.2685658,5.3177189-5.7798358,1.2617096-2.5175696,1.897964-5.5215543,1.897964-9.0304029s-.6362544-6.5069837-1.897964-9.000705c-1.2680091-2.4932713-3.0399822-4.409684-5.3177189-5.7559875Z"/>
  <path d="M797.9027571,6.943782H87.0967929v126.4724371h710.8059643V6.943782ZM358.8935162,88.4729897h-224.7399953v-36.5855283h224.7399953v36.5855283ZM646.688393,88.4729897h-36.5850783v-36.5855283h36.5850783v36.5855283ZM701.5673605,88.4729897h-36.5859783v-36.5855283h36.5859783v36.5855283ZM758.6988665,88.4729897h-36.5859783v-36.5855283h36.5859783v36.5855283Z"/>
  <path d="M797.9027571,170.0021974H87.0967929v126.4724371h710.8059643v-126.4724371ZM358.8935162,251.5309551h-224.7399953v-36.5855283h224.7399953v36.5855283ZM646.688393,251.5309551h-36.5850783v-36.5855283h36.5850783v36.5855283ZM701.5673605,251.5309551h-36.5859783v-36.5855283h36.5859783v36.5855283ZM758.6988665,251.5309551h-36.5859783v-36.5855283h36.5859783v36.5855283Z"/>
  <path d="M797.9027571,333.0601628H87.0967929v126.4724371h710.8059643v-126.4724371ZM358.8935162,414.5893705h-224.7399953v-36.5859783h224.7399953v36.5859783ZM646.688393,414.5893705h-36.5850783v-36.5859783h36.5850783v36.5859783ZM701.5673605,414.5893705h-36.5859783v-36.5859783h36.5859783v36.5859783ZM758.6988665,414.5893705h-36.5859783v-36.5859783h36.5859783v36.5859783Z"/>
  <polygon points="109.9272569 911.5900058 109.9272569 870.685687 105.0181087 870.685687 105.0181087 888.7401932 83.8093285 888.7401932 83.8093285 870.685687 78.9001802 870.685687 78.9001802 911.5900058 83.8093285 911.5900058 83.8093285 892.7719043 105.0181087 892.7719043 105.0181087 911.5900058 109.9272569 911.5900058"/>
  <rect x="130.2289021" y="870.685687" width="4.9091482" height="40.9043188"/>
  <path d="M174.9125001,893.5890458h11.7999544c-.3122776,4.4461314-1.5739872,7.9428308-3.7968279,10.4905483-2.2174411,2.553567-5.5094052,3.8274257-9.8713926,3.8274257-2.8482959,0-5.3411173-.6731518-7.480264-2.0131557-2.1454463-1.3454036-3.8220261-3.2622662-5.0288396-5.7559875-1.2077135-2.4932713-1.8088704-5.4734078-1.8088704-8.9399594,0-3.4670016.6128561-6.447138,1.8385682-8.9404093s2.9499886-4.4159836,5.1728293-5.7559875c2.2174411-1.3458536,4.8308538-2.0185554,7.8294389-2.0185554,3.195671,0,5.8153833.7208483,7.8582369,2.162995,2.0491532,1.4416967,3.3405606,3.3882572,3.8877214,5.8459811h5.665994c-.8954358-3.8994206-2.8725942-6.9574014-5.930575-9.1748425-3.0579809-2.2228407-6.8854066-3.3342611-11.4813773-3.3342611-4.0497098,0-7.5648579.9008354-10.5445444,2.6917071-2.9805864,1.7904217-5.2817215,4.283693-6.8980057,7.480264-1.6162842,3.1902714-2.4271261,6.8732575-2.4271261,11.0431087,0,4.1694012.7991427,7.8406881,2.3974282,11.0129608,1.5982855,3.1785722,3.8391249,5.6479953,6.7234182,7.4204183,2.8779938,1.772423,6.2302535,2.6615593,10.0450802,2.6615593,3.5457459,0,6.3931419-.6430039,8.5322886-1.9285618,2.1445463-1.2860078,3.9534167-3.1182765,5.4374104-5.4918565l.4085707,6.7175686h4.5005775v-21.8522341h-16.829694v3.851274Z"/>
  <polygon points="242.4031638 911.5900058 242.4031638 870.685687 237.4949155 870.685687 237.4949155 888.7401932 216.2798357 888.7401932 216.2798357 870.685687 211.3706875 870.685687 211.3706875 911.5900058 216.2798357 911.5900058 216.2798357 892.7719043 237.4949155 892.7719043 237.4949155 911.5900058 242.4031638 911.5900058"/>
  <path d="M313.5169678,888.6263514c.9737302-1.7904217,1.4605953-3.7972779,1.4605953-6.0201186,0-2.2592881-.4931647-4.284143-1.4902932-6.0745647-.9917289-1.7962713-2.5234192-3.2145696-4.5842715-4.2656943-2.0671519-1.0515746-4.6985633-1.5802868-7.8888347-1.5802868h-13.4405369v40.9043188h4.9091482v-17.0636772h8.5313886c3.2325684,0,5.8819785-.5345617,7.9491304-1.604135,2.0608523-1.0754229,3.5808434-2.5054205,4.5536737-4.2958422ZM307.8815716,888.3019246c-1.3877006,1.3877006-3.7131339,2.078851-6.9879992,2.078851h-8.4107973v-15.6035319h8.4107973c3.2748653,0,5.6002987.6907005,6.9879992,2.0730015,1.381401,1.381851,2.0725515,3.3045632,2.0725515,5.7559875,0,2.4149769-.6911505,4.3138409-2.0725515,5.6956919Z"/>
  <polygon points="357.4320209 874.7173981 357.4320209 870.685687 332.1249344 870.685687 332.1249344 911.5900058 357.4320209 911.5900058 357.4320209 907.5582947 337.0331827 907.5582947 337.0331827 892.9523414 355.6771467 892.9523414 355.6771467 888.9746264 337.0331827 888.9746264 337.0331827 874.7173981 357.4320209 874.7173981"/>
  <path d="M400.4327395,889.6176303c1.3823009-2.0608523,2.0725515-4.3799861,2.0725515-6.9515519,0-2.2232907-.4859652-4.2476956-1.4596954-6.0804143-.9737302-1.8264191-2.4748227-3.2685658-4.4996776-4.3196905-2.0248549-1.0515746-4.632868-1.5802868-7.8294389-1.5802868h-13.2056537v40.9043188h4.9082483v-16.8895397h8.4116972l8.2974054,16.8895397h5.7856854l-8.9399594-17.5860898c2.9265903-.8594384,5.0774362-2.3195838,6.4588372-4.3862857ZM388.368204,890.8433425h-7.9491304v-16.006253h7.8888347c3.2325684,0,5.5580017.7091492,6.9816997,2.1332971,1.423698,1.4178484,2.1328472,3.3405606,2.1328472,5.7555376,0,2.3735799-.7208483,4.3201404-2.162545,5.8401315-1.4425966,1.520441-3.7374322,2.2772868-6.8917061,2.2772868Z"/>
  <polygon points="443.212074 889.0947678 426.2023929 889.0947678 426.2023929 874.7173981 446.1917605 874.7173981 446.1917605 870.685687 421.2932447 870.685687 421.2932447 911.5900058 426.2023929 911.5900058 426.2023929 893.0661832 443.212074 893.0661832 443.212074 889.0947678"/>
  <path d="M470.6394086,909.6312962c3.0219834,1.772423,6.5371316,2.6615593,10.5508439,2.6615593,4.0497098,0,7.5819567-.8891363,10.6039401-2.6615593,3.0165838-1.772423,5.3654155-4.2539952,7.0419954-7.4505661,1.6765799-3.1902714,2.51172-6.8732575,2.51172-11.0431087,0-4.1694012-.8351402-7.8406881-2.51172-11.0129608-1.6765799-3.1785722-4.0254115-5.6596944-7.0419954-7.4501161-3.0219834-1.7908717-6.5542303-2.6917071-10.6039401-2.6917071-4.0137124,0-7.5288605.9008354-10.5508439,2.6917071-3.0165838,1.7904217-5.3771147,4.2715439-7.0716932,7.4501161-1.6945786,3.1722727-2.5414179,6.8435596-2.5414179,11.0129608,0,4.1698512.8468393,7.8528373,2.5414179,11.0431087,1.6945786,3.1965709,4.0551094,5.6781431,7.0716932,7.4505661ZM467.954001,882.1373664c1.2617096-2.4932713,3.0399822-4.410134,5.316819-5.7559875,2.2777368-1.340004,4.9154478-2.0127058,7.9194325-2.0127058,2.9976852,0,5.6353962.6727018,7.9185326,2.0127058,2.2768368,1.3458536,4.0497098,3.2627162,5.3177189,5.7559875,1.2617096,2.4932713,1.897964,5.4914065,1.897964,9.000255s-.6362544,6.5128333-1.897964,9.0304029c-1.2680091,2.51172-3.0408821,4.4402818-5.3177189,5.7798358-2.2831364,1.3463035-4.9208474,2.0190053-7.9185326,2.0190053-3.0039847,0-5.6416957-.6727018-7.9194325-2.0190053-2.2768368-1.339554-4.0551094-3.2681158-5.316819-5.7798358-1.2680091-2.5175696-1.8988639-5.5215543-1.8988639-9.0304029s.6308548-6.5069837,1.8988639-9.000255Z"/>
  <path d="M533.179527,894.7004661l8.2974054,16.8895397h5.7856854l-8.9399594-17.5860898c2.9256903-.8594384,5.0765362-2.3195838,6.4588372-4.3862857,1.3823009-2.0608523,2.0725515-4.3799861,2.0725515-6.9515519,0-2.2232907-.4868651-4.2476956-1.4596954-6.0804143-.9737302-1.8264191-2.4757226-3.2685658-4.5005775-4.3196905-2.0248549-1.0515746-4.6319681-1.5802868-7.828539-1.5802868h-13.2056537v40.9043188h4.9082483v-16.8895397h8.4116972ZM524.7678298,890.8433425v-16.006253h7.8888347c3.2325684,0,5.5580017.7091492,6.9816997,2.1332971,1.423698,1.4178484,2.1328472,3.3405606,2.1328472,5.7555376,0,2.3735799-.7208483,4.3201404-2.162545,5.8401315-1.4425966,1.520441-3.7374322,2.2772868-6.8917061,2.2772868h-7.9491304Z"/>
  <polygon points="587.9091051 905.7435748 601.5836252 879.4515088 601.5836252 911.5900058 606.4927734 911.5900058 606.4927734 870.685687 600.7061881 870.685687 586.1002347 899.2010436 571.37369 870.685687 565.6483003 870.685687 565.6483003 911.5900058 570.5574485 911.5900058 570.5574485 879.5118045 584.2319686 905.7435748 587.9091051 905.7435748"/>
  <path d="M632.4001169,901.0693097h17.4119523l3.7428318,10.5206961h5.1971276l-15.0145241-40.9043188h-5.2025272l-15.0757197,40.9043188h5.1440314l3.7968279-10.5206961ZM641.1060931,876.8799431l7.2462807,20.2179512h-14.4925615l7.2462807-20.2179512Z"/>
  <polygon points="702.4267989 911.5900058 707.3350472 911.5900058 707.3350472 870.685687 702.4267989 870.685687 702.4267989 903.4667379 680.6285609 870.685687 675.7194127 870.685687 675.7194127 911.5900058 680.6285609 911.5900058 680.6285609 878.8085049 702.4267989 911.5900058"/>
  <path d="M737.7906647,876.3273827c2.1814437-1.3458536,4.7345607-2.0185554,7.6548515-2.0185554,3.2748653,0,5.8765789.7685449,7.8051407,2.3069847,1.9285618,1.5379898,3.2019705,3.5749938,3.8274257,6.1101122h5.4311108c-.8171414-4.0132624-2.6980067-7.1436881-5.6362961-9.3786779-2.9436891-2.2412894-6.7531161-3.3644089-11.4273811-3.3644089-4.0137124,0-7.4685648.9008354-10.3699569,2.6917071-2.902292,1.7904217-5.1557305,4.2715439-6.7477165,7.4501161-1.5982855,3.1722727-2.3974282,6.8435596-2.3974282,11.0129608,0,4.2058486.7991427,7.9009838,2.3974282,11.0732565,1.5919859,3.1785722,3.8454244,5.6479953,6.7477165,7.4204183,2.9013921,1.772423,6.3562445,2.6615593,10.3699569,2.6615593,4.674265,0,8.4836921-1.1114204,11.4273811-3.334711,2.9382894-2.2169911,4.8191547-5.2934207,5.6362961-9.2288387h-5.4311108c-.6254552,2.4937213-1.8988639,4.4884284-3.8274257,5.9904207-1.9285618,1.4961428-4.5302754,2.247139-7.8051407,2.247139-2.9202907,0-5.4734078-.6727018-7.6548515-2.0190053-2.1805437-1.339554-3.8625232-3.2681158-5.052238-5.7798358-1.1897147-2.5175696-1.7845721-5.5215543-1.7845721-9.0304029s.5948574-6.5128333,1.7845721-9.0304029c1.1897147-2.51127,2.8716942-4.4398318,5.052238-5.7798358Z"/>
  <polygon points="806.0993698 907.5582947 785.7068311 907.5582947 785.7068311 892.9523414 804.3444955 892.9523414 804.3444955 888.9746264 785.7068311 888.9746264 785.7068311 874.7173981 806.0993698 874.7173981 806.0993698 870.685687 780.7985828 870.685687 780.7985828 911.5900058 806.0993698 911.5900058 806.0993698 907.5582947"/>
  <path d="M28.9776077,972.3694004c-1.5559885-.9372828-3.3104128-1.7544243-5.2569733-2.4572739-2.3371325-.7752944-4.4042844-1.4659949-6.1947061-2.0730015-1.7904217-.600707-3.1844218-1.3697018-4.1757008-2.3069847-.9975785-.9372828-1.4898432-2.2772868-1.4898432-4.0317111,0-2.0667019.7086992-3.6829861,2.1328472-4.8484026,1.4178484-1.171716,3.2384179-1.7364256,5.4612587-1.6945786,1.7904217,0,3.2807149.348725,4.4704297,1.0515746,1.1897147.6970001,2.0725515,1.604135,2.6615593,2.7155554.5827082,1.1114204.8711376,2.2291403.8711376,3.3585593h5.1431314c-.0359974-2.1805437-.5948574-4.1275542-1.6644307-5.8396815-1.0691234-1.7184269-2.5715657-3.0584308-4.5001275-4.0375607-1.9285618-.9732803-4.1936995-1.4601454-6.8075622-1.4601454-2.6494101,0-4.9383961.4805656-6.8674079,1.4358471-1.9222623.9552815-3.4125555,2.2772868-4.4699797,3.9718654-1.0511247,1.6941286-1.5559885,3.6348395-1.5141415,5.8158332,0,2.6075631.7572957,4.7224116,2.2772868,6.3386958,1.5199911,1.6162842,3.8571236,2.9679873,7.0113976,4.061409,1.6765799.5831582,3.2807149,1.1114204,4.8187047,1.5744372,1.5384398.4684164,2.9018421,1.0151273,4.0915568,1.6401325,1.1897147.6245552,2.1332971,1.4299975,2.8361468,2.4212765.7028496.9975785,1.0515746,2.3132842,1.0515746,3.9475671,0,1.9888575-.7631453,3.6411391-2.2772868,4.968544-1.5199911,1.3220053-3.6649874,1.9830079-6.4286893,1.9830079-2.1031493,0-3.8697227-.3964216-5.2875711-1.1955643-1.423698-.7991427-2.5054205-1.8687161-3.2442675-3.2145696-.739297-1.3458536-1.1118703-2.8118485-1.1118703-4.410134h-5.1426815c0,2.5715657.6065565,4.8304039,1.81427,6.7774143,1.2077135,1.9465605,2.9198408,3.4665516,5.1431314,4.5541237,2.2169911,1.0934216,4.8245543,1.6405824,7.828989,1.6405824,3.0759796,0,5.6353962-.5471608,7.6845493-1.6405824,2.0428536-1.0875721,3.5686943-2.4991209,4.5842715-4.2359965,1.0151273-1.730126,1.5199911-3.5745439,1.5199911-5.5211044,0-2.2952855-.4387186-4.1878499-1.3157057-5.665994-.8774371-1.4839937-2.0910002-2.6917071-3.6532882-3.6231404Z"/>
  <path d="M80.8890377,953.4374571c-3.0156839-1.7904217-6.5551303-2.6917071-10.6048401-2.6917071-4.0128124,0-7.5279606.9012854-10.5445444,2.6917071-3.0219834,1.7904217-5.3771147,4.2719939-7.0712433,7.4501161-1.6941286,3.1727226-2.5414179,6.8435596-2.5414179,11.0134108s.8472893,7.8528373,2.5414179,11.0431087c1.6941286,3.196121,4.0492598,5.6776931,7.0712433,7.4501161,3.0165838,1.772423,6.5317319,2.6620092,10.5445444,2.6620092,4.0497098,0,7.5891562-.8895863,10.6048401-2.6620092,3.0219834-1.772423,5.3717151-4.2539952,7.0419954-7.4501161,1.6756799-3.1902714,2.5171196-6.8732575,2.5171196-11.0431087s-.8414397-7.8406881-2.5171196-11.0134108c-1.6702803-3.1781223-4.0200119-5.6596944-7.0419954-7.4501161ZM83.5204492,980.9313869c-1.2671092,2.51127-3.0399822,4.4402818-5.316819,5.7798358-2.2777368,1.3458536-4.9208474,2.0190053-7.9194325,2.0190053-2.9976852,0-5.6353962-.6731518-7.9185326-2.0190053-2.2768368-1.339554-4.0497098-3.2685658-5.317269-5.7798358-1.2617096-2.5175696-1.898414-5.5215543-1.898414-9.0304029s.6367044-6.5069837,1.898414-9.000705c1.2675592-2.4932713,3.0404321-4.409684,5.317269-5.7559875,2.2831364-1.339554,4.9208474-2.0122558,7.9185326-2.0122558,2.9985851,0,5.6416957.6727018,7.9194325,2.0122558,2.2768368,1.3463035,4.0497098,3.2627162,5.316819,5.7559875,1.2680091,2.4937213,1.8988639,5.4918565,1.8988639,9.000705s-.6308548,6.5128333-1.8988639,9.0304029Z"/>
  <polygon points="108.9535267 992.3529184 113.8626749 992.3529184 113.8626749 973.8295458 130.872356 973.8295458 130.872356 969.8581304 113.8626749 969.8581304 113.8626749 955.4803107 133.8520424 955.4803107 133.8520424 951.4485996 108.9535267 951.4485996 108.9535267 992.3529184"/>
  <polygon points="149.5397183 955.4803107 161.754543 955.4803107 161.754543 992.3529184 166.6627913 992.3529184 166.6627913 955.4803107 178.877616 955.4803107 178.877616 951.4485996 149.5397183 951.4485996 149.5397183 955.4803107"/>
  <polygon points="233.649491 986.566783 223.8914903 951.4485996 218.4540799 951.4485996 208.4089998 986.566783 199.5824323 951.4485996 194.325009 951.4485996 205.5427052 992.4132141 211.0341116 992.3529184 221.0260956 958.5805885 230.7831964 992.3529184 236.3951943 992.3529184 247.8468737 951.4485996 242.5894504 951.4485996 233.649491 986.566783"/>
  <path d="M274.2536814,951.4485996l-15.0748198,40.9043188h5.1431314l3.7968279-10.5202461h17.4119523l3.7428318,10.5202461h5.1971276l-15.0145241-40.9043188h-5.2025272ZM269.5785164,977.8608069l7.2462807-20.2175012,7.2462807,20.2175012h-14.4925615Z"/>
  <path d="M336.3366326,970.3805429c1.3823009-2.0608523,2.0725515-4.3799861,2.0725515-6.9511019,0-2.2232907-.4859652-4.2481456-1.4596954-6.0808643-.9728303-1.8259692-2.4757226-3.2681158-4.5005775-4.3196905-2.0248549-1.0515746-4.6319681-1.5802868-7.828539-1.5802868h-13.2056537v40.9043188h4.9082483v-16.8890897h8.4116972l8.2974054,16.8890897h5.7856854l-8.9399594-17.5860898c2.9256903-.8594384,5.0765362-2.3191338,6.4588372-4.3862857ZM324.2720971,971.6062551h-7.9491304v-16.005803h7.8888347c3.2325684,0,5.5580017.7086992,6.9816997,2.1328472,1.423698,1.4178484,2.1328472,3.3405606,2.1328472,5.7559875,0,2.3731299-.7208483,4.3201404-2.162545,5.8401315-1.4425966,1.5199911-3.7374322,2.2768368-6.8917061,2.2768368Z"/>
  <polygon points="357.2034373 992.3529184 382.5042242 992.3529184 382.5042242 988.3216573 362.1125855 988.3216573 362.1125855 973.715254 380.7502499 973.715254 380.7502499 969.737989 362.1125855 969.737989 362.1125855 955.4803107 382.5042242 955.4803107 382.5042242 951.4485996 357.2034373 951.4485996 357.2034373 992.3529184"/>
  <polygon points="426.6766589 992.3529184 431.5858071 992.3529184 431.5858071 973.8295458 448.5954882 973.8295458 448.5954882 969.8581304 431.5858071 969.8581304 431.5858071 955.4803107 451.5751747 955.4803107 451.5751747 951.4485996 426.6766589 951.4485996 426.6766589 992.3529184"/>
  <path d="M497.1722072,953.4374571c-3.0165838-1.7904217-6.5551303-2.6917071-10.6048401-2.6917071-4.0137124,0-7.5279606.9012854-10.5445444,2.6917071-3.0219834,1.7904217-5.3771147,4.2719939-7.0716932,7.4501161-1.6945786,3.1727226-2.5414179,6.8435596-2.5414179,11.0134108s.8468393,7.8528373,2.5414179,11.0431087c1.6945786,3.196121,4.0497098,5.6776931,7.0716932,7.4501161,3.0165838,1.772423,6.530832,2.6620092,10.5445444,2.6620092,4.0497098,0,7.5882562-.8895863,10.6048401-2.6620092,3.0219834-1.772423,5.3708151-4.2539952,7.0410954-7.4501161,1.6765799-3.1902714,2.5180196-6.8732575,2.5180196-11.0431087s-.8414397-7.8406881-2.5180196-11.0134108c-1.6702803-3.1781223-4.019112-5.6596944-7.0410954-7.4501161ZM499.8036187,980.9313869c-1.2680091,2.51127-3.0399822,4.4402818-5.3177189,5.7798358-2.2768368,1.3458536-4.9208474,2.0190053-7.9185326,2.0190053s-5.6353962-.6731518-7.9185326-2.0190053c-2.2777368-1.339554-4.0497098-3.2685658-5.3177189-5.7798358-1.2617096-2.5175696-1.8988639-5.5215543-1.8988639-9.0304029s.6371543-6.5069837,1.8988639-9.000705c1.2680091-2.4932713,3.0399822-4.409684,5.3177189-5.7559875,2.2831364-1.339554,4.9208474-2.0122558,7.9185326-2.0122558s5.6416957.6727018,7.9185326,2.0122558c2.2777368,1.3463035,4.0497098,3.2627162,5.3177189,5.7559875,1.2680091,2.4937213,1.8988639,5.4918565,1.8988639,9.000705s-.6308548,6.5128333-1.8988639,9.0304029Z"/>
  <path d="M550.3151991,977.3383943c0,3.9714154-.9377328,6.8552588-2.8059989,8.6461304-1.8682661,1.7899717-4.3439887,2.6854076-7.4199683,2.6854076s-5.5697009-.8954358-7.480264-2.6854076c-1.9105631-1.7908717-2.8599951-4.674715-2.8599951-8.6461304v-25.8897948h-4.9091482v25.829949c0,3.6226904.6794513,6.6028268,2.0428536,8.9399594,1.3643022,2.3371325,3.1848718,4.061409,5.4617086,5.1732793,2.2831364,1.1055708,4.8245543,1.6644307,7.6305532,1.6644307,2.8419963,0,5.4131121-.55886,7.7088476-1.6644307,2.3011351-1.1118703,4.1334038-2.8361468,5.497706-5.1732793,1.3571028-2.3371325,2.0428536-5.317269,2.0428536-8.9399594v-25.829949h-4.9091482v25.8897948Z"/>
  <polygon points="601.9678977 984.2296505 580.1705596 951.4485996 575.2614114 951.4485996 575.2614114 992.3529184 580.1705596 992.3529184 580.1705596 959.5718675 601.9678977 992.3529184 606.8770459 992.3529184 606.8770459 951.4485996 601.9678977 951.4485996 601.9678977 984.2296505"/>
  <path d="M639.7543899,951.4485996h-12.5639997v40.9043188h12.5639997c7.2039838,0,12.5154032-1.8205695,15.9216591-5.4612587,3.4062559-3.6474386,5.1134336-8.6038335,5.1134336-14.8768339,0-6.3868423-1.7071777-11.4093824-5.1134336-15.0743698-3.4062559-3.6591378-8.7176753-5.4918565-15.9216591-5.4918565ZM654.1857558,980.6969537c-1.0088277,2.4334256-2.6971067,4.3021417-5.0531379,5.6056983-2.3551312,1.3098561-5.5211044,1.9587096-9.4925198,1.9587096h-7.5405597v-32.7207553h7.5405597c3.9714154,0,7.1373885.6605527,9.4925198,1.9884075,2.3560312,1.3220053,4.0443102,3.2087201,5.0531379,5.665994,1.0160272,2.4514243,1.5199911,5.3955634,1.5199911,8.819818,0,3.3527097-.5039639,6.2487022-1.5199911,8.6821278Z"/>
  <path d="M689.5208237,951.4485996l-15.0748198,40.9043188h5.1431314l3.7968279-10.5202461h17.4119523l3.7437317,10.5202461h5.1971276l-15.015424-40.9043188h-5.2025272ZM684.8465587,977.8608069l7.2453808-20.2175012,7.2462807,20.2175012h-14.4916615Z"/>
  <polygon points="719.4598783 955.4803107 731.674703 955.4803107 731.674703 992.3529184 736.5829513 992.3529184 736.5829513 955.4803107 748.7986759 955.4803107 748.7986759 951.4485996 719.4598783 951.4485996 719.4598783 955.4803107"/>
  <rect x="765.7057644" y="951.4485996" width="4.9082483" height="40.9043188"/>
  <path d="M819.9484774,953.4374571c-3.0228834-1.7904217-6.5551303-2.6917071-10.6048401-2.6917071-4.0137124,0-7.5288605.9012854-10.5508439,2.6917071-3.0156839,1.7904217-5.3771147,4.2719939-7.0716932,7.4501161-1.6945786,3.1727226-2.5414179,6.8435596-2.5414179,11.0134108s.8468393,7.8528373,2.5414179,11.0431087c1.6945786,3.196121,4.0560093,5.6776931,7.0716932,7.4501161,3.0219834,1.772423,6.5371316,2.6620092,10.5508439,2.6620092,4.0497098,0,7.5819567-.8895863,10.6048401-2.6620092,3.0156839-1.772423,5.3645156-4.2539952,7.0410954-7.4501161,1.6765799-3.1902714,2.51172-6.8732575,2.51172-11.0431087s-.8351402-7.8406881-2.51172-11.0134108c-1.6765799-3.1781223-4.0254115-5.6596944-7.0410954-7.4501161ZM822.5798888,980.9313869c-1.2680091,2.51127-3.0399822,4.4402818-5.3177189,5.7798358-2.2831364,1.3458536-4.9208474,2.0190053-7.9185326,2.0190053-3.0039847,0-5.6416957-.6731518-7.9185326-2.0190053-2.2777368-1.339554-4.0560093-3.2685658-5.3177189-5.7798358-1.2680091-2.5175696-1.8988639-5.5215543-1.8988639-9.0304029s.6308548-6.5069837,1.8988639-9.000705c1.2617096-2.4932713,3.0399822-4.409684,5.3177189-5.7559875,2.2768368-1.339554,4.9145478-2.0122558,7.9185326-2.0122558,2.9976852,0,5.6353962.6727018,7.9185326,2.0122558,2.2777368,1.3463035,4.0497098,3.2627162,5.3177189,5.7559875,1.2617096,2.4937213,1.897964,5.4918565,1.897964,9.000705s-.6362544,6.5128333-1.897964,9.0304029Z"/>
  <polygon points="874.7194525 984.2296505 852.9212146 951.4485996 848.0129663 951.4485996 848.0129663 992.3529184 852.9212146 992.3529184 852.9212146 959.5718675 874.7194525 992.3529184 879.6286007 992.3529184 879.6286007 951.4485996 874.7194525 951.4485996 874.7194525 984.2296505"/>
  <polygon points="216.9106905 792.6981755 266.8814097 792.6981755 266.8814097 585.7917522 216.9106905 585.7917522 216.9106905 664.1153896 136.2494706 664.1153896 136.2494706 585.7917522 86.2787515 585.7917522 86.2787515 792.6981755 136.2494706 792.6981755 136.2494706 706.1972741 216.9106905 706.1972741 216.9106905 792.6981755"/>
  <path d="M458.9357472,619.5460834c-4.1882999-8.0814209-9.9316883-14.6122529-17.2382647-19.5807969-7.3056765-4.9631443-15.8793621-8.567836-25.7210569-10.8091254-9.8353952-2.2408394-20.4105374-3.3644089-31.705628-3.3644089h-75.9806553v206.9064233h49.9707191v-78.0293585h24.8445197c10.7119324,0,21.0404923-1.1654165,30.9721806-3.502549,9.9379879-2.3375825,18.7033597-6.0385673,26.3042151-11.1092539,7.5945558-5.0589875,13.6331231-11.7342591,18.1211015-20.0136658,4.4762792-8.2794067,6.7171187-18.4576773,6.7171187-30.5402115,0-11.8840984-2.0968497-21.8702328-6.2842497-29.9570533ZM412.3235874,661.9222468c-1.9474604,3.2145696-4.6265685,5.7982845-8.0337243,7.744845-3.4125555,1.9465605-7.2579799,3.3162624-11.5416729,4.0915568-4.2899926.781144-8.7716714,1.1658665-13.4468364,1.1658665h-21.0404923v-48.7994531h21.9179294c4.4825788,0,8.8139684.2884293,13.0085678.8769872,4.1873999.5831582,7.9302317,1.7485747,11.247394,3.502999,3.3099628,1.7544243,5.9413742,4.1936995,7.8888347,7.3061264,1.9465605,3.1182765,2.9256903,7.1139902,2.9256903,11.9803915,0,4.8727008-.9791298,8.9161111-2.9256903,12.1306807Z"/>
  <path d="M631.7089664,728.9926406c0-10.3281099-2.0428536-18.9499421-6.1339604-25.8654965-4.0920068-6.9155544-9.2594365-12.7138389-15.48969-17.388104-6.2365531-4.674265-13.1525575-8.4233964-20.7525129-11.2532436-7.5945558-2.8181481-14.9002323-5.4018629-21.9179294-7.744845-4.8731508-1.5559885-9.2531369-3.0642804-13.146258-4.5244258-3.8994206-1.4659949-7.2642794-3.07013-10.0819775-4.8245543-2.8302972-1.7544243-4.968544-3.7968279-6.4345389-6.1344104-1.4605953-2.3429821-2.1877432-5.2632728-2.1877432-8.7721214,0-4.0915568.9197341-7.4501161,2.7763011-10.0819775,1.8502674-2.6251119,4.1334038-4.7705581,6.8674079-6.4286893,2.721405-1.6522816,5.791985-2.7758511,9.2045404-3.3585593,3.4071558-.5827082,6.7657152-.8769872,10.0819775-.8769872,6.4291393,0,13.0976614,1.6099846,20.0190655,4.8245543,6.9097049,3.2145696,12.5154032,7.5522588,16.8053957,13.0018183l31.8505176-33.604042c-9.1568438-8.3756998-19.8273792-14.708546-32.0008068-18.9985386-12.1788273-4.283693-24.1110722-6.4286893-35.7967348-6.4286893-9.7454017,0-19.3891106,1.2198626-28.9302269,3.6532882-9.5528155,2.4392752-18.1211015,6.2842497-25.7210569,11.5416729-7.5945558,5.2632728-13.7348158,11.9803915-18.4090808,20.1639551-4.675165,8.1831136-7.0122975,18.0248084-7.0122975,29.5183347,0,9.3489801,1.5082919,17.2918109,4.5302754,23.8167933,3.0165838,6.531282,7.0122975,12.0825342,11.9808415,16.6551065,4.968544,4.5842715,10.6165392,8.3334028,16.9493854,11.2532436,6.3265466,2.9202907,12.8096821,5.4554091,19.4305076,7.6004054,6.8197113,2.1449963,12.9059752,4.1397034,18.2650911,5.9904207,5.359116,1.8502674,9.8353952,3.8994206,13.4468364,6.1344104,3.5988421,2.2412894,6.3742432,4.7287111,8.3271033,7.4501161,1.9465605,2.7340041,2.9202907,6.0444169,2.9202907,9.9379879,0,4.0915568-.781144,7.6004054-2.3371325,10.5202461-1.562288,2.9261403-3.6528382,5.2632728-6.2788501,7.0176971-2.6314114,1.7485747-5.7019914,3.0219834-9.21084,3.7972779-3.502549.781144-7.1139902,1.1654165-10.8091254,1.1654165-8.1831136,0-16.4139238-2.0910002-24.6933305-6.2784001-8.2857063-4.1878499-14.9551283-9.3971266-20.0199654-15.6395293l-32.7333544,33.3156126c9.1568438,9.5474158,20.6508202,16.9075384,34.4882286,22.0686686,13.8311089,5.1548306,28.1481829,7.744395,42.9584216,7.744395,10.1242745,0,19.9659693-1.3697018,29.5124852-4.0915568,9.5474158-2.7277045,18.0194087-6.9155544,25.4276779-12.5693993,7.4019696-5.6475453,13.2965472-12.8096821,17.6819329-21.4796608,4.3799861-8.6636792,6.573129-18.9436425,6.573129-30.8281909Z"/>
  <polygon points="791.9973803 671.1267872 711.9256182 671.1267872 711.9256182 628.4621945 798.7207985 628.4621945 798.7207985 585.7917522 662.5371573 585.7917522 662.5371573 792.6981755 711.9256182 792.6981755 711.9256182 712.3316845 791.9973803 712.3316845 791.9973803 671.1267872"/>
</svg>