<?xml version="1.0" encoding="UTF-8"?>
<svg id="Layer_1" xmlns="http://www.w3.org/2000/svg" version="1.1" viewBox="0 0 1000 290">
  <!-- Generator: Adobe Illustrator 29.0.0, SVG Export Plug-In . SVG Version: 2.1.0 Build 186)  -->
  <defs>
    <style>
      .st0 {
        fill: none;
      }

      .st1 {
        fill: #50c61e;
      }

      .st2 {
        fill: #0d92ff;
      }

      .st3 {
        fill: #fff;
      }

      .st4 {
        fill: #ef0303;
      }
    </style>
  </defs>
  <polygon class="st0" points="894.8938547 249.7791484 890.8651571 238.5372841 886.8358976 249.7791484 894.8938547 249.7791484"/>
  <path class="st0" d="M857.5067543,237.3680066v18.1940367h4.1927673c2.2087602,0,3.9691381-.3607286,5.2788862-1.0892092,1.3091863-.7248284,2.2480919-1.7640301,2.8094126-3.1170432.5646919-1.3530131.8450713-2.9630874.8450713-4.8274136,0-1.9042198-.2803794-3.5412645-.8450713-4.9043915-.5613206-1.3662173-1.5002263-2.415252-2.8094126-3.1501943-1.3097481-.7383136-3.070126-1.1057848-5.2788862-1.1057848h-4.1927673Z"/>
  <path class="st0" d="M951.6580355,254.7001155c1.2659213.7484275,2.7329965,1.1226413,4.4034732,1.1226413,1.6665435,0,3.1336188-.3742138,4.4029114-1.1226413,1.2664832-.7450562,2.2520251-1.817409,2.9566258-3.213968.7017913-1.3996493,1.0557772-3.070126,1.0557772-5.0212631,0-1.9508561-.353986-3.6179615-1.0557772-5.0044066-.7046007-1.3864451-1.6901426-2.4520553-2.9566258-3.2004828-1.2692926-.7450562-2.7363678-1.11927-4.4029114-1.11927-1.6704767,0-3.1375519.3742138-4.4034732,1.11927-1.2659213.7484275-2.2548345,1.8140377-2.9566258,3.2004828-.7051626,1.3864451-1.0557772,3.0535505-1.0557772,5.0044066,0,1.951137.3506147,3.6216137,1.0557772,5.0212631.7017913,1.396559,1.6907045,2.4689118,2.9566258,3.213968Z"/>
  <polygon class="st0" points="822.6054221 193.6299481 818.5761626 204.8718124 826.6346816 204.8718124 822.6054221 193.6299481"/>
  <path class="st0" d="M729.2829176,209.7927795c1.2659213.7484275,2.7324347,1.1226413,4.4029114,1.1226413,1.6671054,0,3.1336188-.3742138,4.4034732-1.1226413,1.2659213-.7450562,2.2514632-1.817409,2.9566258-3.213968.7012294-1.3996493,1.0557772-3.070126,1.0557772-5.0212631,0-1.9508561-.3545479-3.6179615-1.0557772-5.0044066-.7051626-1.3864451-1.6907045-2.4520553-2.9566258-3.2004828-1.2698545-.7450562-2.7363678-1.11927-4.4034732-1.11927-1.6704767,0-3.1369901.3742138-4.4029114,1.11927-1.2659213.7484275-2.2548345,1.8140377-2.9566258,3.2004828-.7051626,1.3864451-1.0557772,3.0535505-1.0557772,5.0044066,0,1.951137.3506147,3.6216137,1.0557772,5.0212631.7017913,1.396559,1.6907045,2.4689118,2.9566258,3.213968Z"/>
  <path class="st0" d="M681.3987281,80.6867872c2.3823818-.4309639,4.5203448-1.1928766,6.417822-2.2753432,1.8941059-1.0824667,3.3842184-2.5189193,4.466966-4.3062676,1.0821857-1.7873483,1.6266499-4.0357211,1.6266499-6.7451186,0-2.7060262-.5444642-4.9277096-1.6266499-6.6616791-1.0827476-1.7305981-2.5458897-3.0867016-4.3866168-4.0624106-1.8440984-.975428-3.9258731-1.6235595-6.2543142-1.9474848-2.3318124-.3275775-4.7406028-.487714-7.2325517-.487714h-12.1872317v27.1338684h11.6995177c2.5987066,0,5.0912174-.2135154,7.4764087-.6478505Z"/>
  <polygon class="st0" points="659.9606627 238.5372841 655.9319651 249.7791484 663.9899222 249.7791484 659.9606627 238.5372841"/>
  <path class="st0" d="M772.1820855,254.7001155c1.2698545.7484275,2.7363678,1.1226413,4.4034732,1.1226413s3.1369901-.3742138,4.4034732-1.1226413c1.2659213-.7450562,2.2514632-1.817409,2.9566258-3.213968.7046007-1.3996493,1.0552154-3.070126,1.0552154-5.0212631,0-1.9508561-.3506147-3.6179615-1.0552154-5.0044066-.7051626-1.3864451-1.6907045-2.4520553-2.9566258-3.2004828-1.2664832-.7450562-2.7363678-1.11927-4.4034732-1.11927s-3.1336188.3742138-4.4034732,1.11927c-1.2659213.7484275-2.2514632,1.8140377-2.9566258,3.2004828-.7012294,1.3864451-1.0552154,3.0535505-1.0552154,5.0044066,0,1.951137.353986,3.6216137,1.0552154,5.0212631.7051626,1.396559,1.6907045,2.4689118,2.9566258,3.213968Z"/>
  <path class="st0" d="M766.1688188,200.1278384c.8018063-.8453522,1.2029905-1.9278189,1.2029905-3.2474,0-1.3428992-.3944415-2.4118807-1.186134-3.2004828-.7916925-.7916925-2.0845841-1.185853-3.8820463-1.185853h-4.3866168v8.8996571h4.4197678c1.7541972,0,3.0302324-.42085,3.8320387-1.2659213Z"/>
  <path class="st0" d="M637.3201688,199.9806252c.7680934-.7680934,1.152421-1.8238706,1.152421-3.1670508,0-1.362846-.3843276-2.4321085-1.152421-3.2004828-.7720266-.7683743-2.0649182-1.152421-3.8854176-1.152421h-4.67711v8.6760279h4.67711c1.8204993,0,3.113391-.3840467,3.8854176-1.1560733Z"/>
  <path class="st0" d="M691.3777615,241.7877744c0-1.3428992-.3938796-2.4118807-1.1855721-3.2004828-.7922543-.7916925-2.085146-1.185853-3.8826082-1.185853h-4.3860549v8.899938h4.4197678c1.7541972,0,3.0302324-.4211309,3.8320387-1.2662022.8018063-.8453522,1.2024286-1.9278189,1.2024286-3.2474Z"/>
  <path class="st0" d="M545.1163724,255.8227567c1.6671054,0,3.1375519-.3742138,4.4034732-1.1226413,1.2659213-.7450562,2.2514632-1.817409,2.9566258-3.213968.7051626-1.3996493,1.0557772-3.070126,1.0557772-5.0212631,0-1.9508561-.3506147-3.6179615-1.0557772-5.0044066s-1.6907045-2.4520553-2.9566258-3.2004828c-1.2659213-.7450562-2.7363678-1.11927-4.4034732-1.11927-1.6665435,0-3.1336188.3742138-4.4029114,1.11927-1.2664832.7484275-2.2520251,1.8140377-2.9566258,3.2004828-.7017913,1.3864451-1.0557772,3.0535505-1.0557772,5.0044066,0,1.951137.353986,3.6216137,1.0557772,5.0212631.7046007,1.396559,1.6901426,2.4689118,2.9566258,3.213968,1.2692926.7484275,2.7363678,1.1226413,4.4029114,1.1226413Z"/>
  <path class="st0" d="M687.1085782,196.8804384c0-1.3428992-.3944415-2.4118807-1.186134-3.2004828-.7916925-.7916925-2.0845841-1.185853-3.8820463-1.185853h-4.3866168v8.8996571h4.4197678c1.7541972,0,3.0302324-.42085,3.8320387-1.2659213.8018063-.8453522,1.2029905-1.9278189,1.2029905-3.2474Z"/>
  <path class="st1" d="M448.6557541,3.7111307H4.8579092v78.9641588h443.7978449V3.7111307ZM174.5565416,54.6145959H34.2381839v-22.8424907h140.3183577v22.8424907ZM354.2437594,54.6145959h-22.8422097v-22.8424907h22.8422097v22.8424907ZM388.5079169,54.6145959h-22.8427716v-22.8424907h22.8427716v22.8424907ZM424.1784662,54.6145959h-22.8427716v-22.8424907h22.8427716v22.8424907Z"/>
  <path class="st2" d="M448.6557541,105.5180611H4.8579092v78.9641588h443.7978449v-78.9641588ZM174.5565416,156.4212453H34.2381839v-22.8424907h140.3183577v22.8424907ZM354.2437594,156.4212453h-22.8422097v-22.8424907h22.8422097v22.8424907ZM388.5079169,156.4212453h-22.8427716v-22.8424907h22.8427716v22.8424907ZM424.1784662,156.4212453h-22.8427716v-22.8424907h22.8427716v22.8424907Z"/>
  <path class="st4" d="M448.6557541,207.3247105H4.8579092v78.9641588h443.7978449v-78.9641588ZM174.5565416,258.2281757H34.2381839v-22.8427716h140.3183577v22.8427716ZM354.2437594,258.2281757h-22.8422097v-22.8427716h22.8422097v22.8427716ZM388.5079169,258.2281757h-22.8427716v-22.8427716h22.8427716v22.8427716ZM424.1784662,258.2281757h-22.8427716v-22.8427716h22.8427716v22.8427716Z"/>
  <polygon class="st3" points="524.5205689 200.2244822 512.7272169 200.2244822 512.7272169 190.1853274 509.9975917 190.1853274 509.9975917 212.9297695 512.7272169 212.9297695 512.7272169 202.4663934 524.5205689 202.4663934 524.5205689 212.9297695 527.2496323 212.9297695 527.2496323 190.1853274 524.5205689 190.1853274 524.5205689 200.2244822"/>
  <rect class="st3" x="538.5384138" y="190.1853274" width="2.7296252" height="22.7444422"/>
  <path class="st3" d="M558.2829653,193.4195231c1.2327702-.7484275,2.6857984-1.1226413,4.3529038-1.1226413,1.7772344,0,3.2341957.4009032,4.3697603,1.2027095,1.1394977.8018063,1.8575836,1.884273,2.161562,3.2504903h3.1504752c-.4978279-2.1680237-1.5968701-3.8685611-3.2976885-5.1013313-1.7002565-1.2361415-3.8281056-1.8542123-6.3841091-1.8542123-2.2514632,0-4.2062525.5011992-5.863244,1.4965741-1.6569915.9956558-2.936398,2.3821009-3.8348481,4.1596162-.899012,1.7738631-1.3502037,3.8219248-1.3502037,6.1402521,0,2.3186082.4444491,4.3599273,1.3333472,6.1239575.8883363,1.7671205,2.1345917,3.1403614,3.7382043,4.1259033,1.6002414.9855419,3.4645676,1.4799985,5.585674,1.4799985,1.9710839,0,3.5550307-.3576382,4.743974-1.0726337,1.1928766-.7147146,2.1986463-1.7339694,3.0234898-3.0535505l.2275624,3.735114h2.5020628v-12.1507093h-9.3575913v2.1416152h6.5611021c-.1736217,2.4722831-.8748511,4.4166775-2.1109926,5.8331833-1.2327702,1.4198771-3.0639453,2.1278491-5.4890303,2.1278491-1.5839468,0-2.970111-.3739328-4.1596162-1.118989-1.1923147-.7484275-2.1244778-1.8140377-2.7959274-3.2004828-.6714496-1.3864451-1.0057697-3.0434366-1.0057697-4.9712555,0-1.927538.3405008-3.5848104,1.0220643-4.9709746.6815635-1.386726,1.6406969-2.4557075,2.8768385-3.2004828Z"/>
  <polygon class="st3" points="583.6564558 190.1853274 583.6564558 212.9297695 586.3855191 212.9297695 586.3855191 202.4663934 598.1822425 202.4663934 598.1822425 212.9297695 600.9118677 212.9297695 600.9118677 190.1853274 598.1822425 190.1853274 598.1822425 200.2244822 586.3855191 200.2244822 586.3855191 190.1853274 583.6564558 190.1853274"/>
  <path class="st3" d="M628.7576412,203.4418214h4.743974c1.7969003,0,3.2707181-.2972358,4.4197678-.8919885,1.1456784-.5981239,1.9913116-1.3931877,2.5324045-2.3885626.5410929-.9956558.8119202-2.1115545.8119202-3.347696,0-1.2560884-.2741987-2.38182-.8287767-3.3774758-.5512067-.9987462-1.4030206-1.7873483-2.549261-2.371987-1.1490497-.5846388-2.6121918-.8787842-4.3860549-.8787842h-7.4735993v22.7444422h2.7296252v-9.4879481ZM628.7576412,192.4606706h4.67711c1.8204993,0,3.113391.3840467,3.8854176,1.152421.7680934.7683743,1.152421,1.8376368,1.152421,3.2004828,0,1.3431801-.3843276,2.3989574-1.152421,3.1670508-.7720266.7720266-2.0649182,1.1560733-3.8854176,1.1560733h-4.67711v-8.6760279Z"/>
  <polygon class="st3" points="664.8715159 192.4272386 664.8715159 190.1853274 650.8002921 190.1853274 650.8002921 212.9297695 664.8715159 212.9297695 664.8715159 210.6881393 653.5299174 210.6881393 653.5299174 202.5664085 663.8960878 202.5664085 663.8960878 200.3548389 653.5299174 200.3548389 653.5299174 192.4272386 664.8715159 192.4272386"/>
  <path class="st3" d="M682.3308912,203.5387462l4.6136173,9.3910234h3.2173393l-4.9709746-9.7784413c1.6266499-.4778811,2.8228977-1.2895204,3.5909911-2.438851.7686553-1.1459594,1.1529829-2.4354797,1.1529829-3.8654707,0-1.2361415-.2708274-2.3618731-.8119202-3.3808471-.5410929-1.0156026-1.3766122-1.817409-2.5026247-2.4020477-1.1254507-.5846388-2.5756694-.8787842-4.3529038-.8787842h-7.3432425v22.7444422h2.7296252v-9.3910234h4.67711ZM677.6537811,201.3937597v-8.8996571h4.3866168c1.7974622,0,3.0903538.3941606,3.8820463,1.185853.7916925.7886021,1.186134,1.8575836,1.186134,3.2004828,0,1.3195811-.4011841,2.4020477-1.2029905,3.2474-.8018063.8450713-2.0778415,1.2659213-3.8320387,1.2659213h-4.4197678Z"/>
  <polygon class="st3" points="712.5685985 200.4217029 703.1109921 200.4217029 703.1109921 192.4272386 714.22559 192.4272386 714.22559 190.1853274 700.3813668 190.1853274 700.3813668 212.9297695 703.1109921 212.9297695 703.1109921 202.6299012 712.5685985 202.6299012 712.5685985 200.4217029"/>
  <path class="st3" d="M727.8197755,211.8408412c1.6800287.9855419,3.634818,1.4799985,5.8660534,1.4799985,2.2520251,0,4.2163664-.4944566,5.896957-1.4799985,1.6766574-.9855419,2.9830343-2.3655254,3.9151973-4.1427598.9321631-1.7738631,1.3968399-3.8219248,1.3968399-6.140533s-.4646768-4.3596464-1.3968399-6.1236766c-.9321631-1.7671205-2.2385399-3.1471039-3.9151973-4.1427598-1.6805906-.9953749-3.6449319-1.4965741-5.896957-1.4965741-2.2312355,0-4.1860247.5011992-5.8660534,1.4965741-1.6772193.9956558-2.9903387,2.3756393-3.9326157,4.1427598-.9417151,1.7640301-1.4131345,3.8050684-1.4131345,6.1236766s.4714194,4.3666699,1.4131345,6.140533c.942277,1.7772344,2.2553964,3.1572178,3.9326157,4.1427598ZM726.3262918,196.5531419c.7017913-1.3864451,1.6907045-2.4520553,2.9566258-3.2004828,1.2659213-.7450562,2.7324347-1.11927,4.4029114-1.11927,1.6671054,0,3.1336188.3742138,4.4034732,1.11927,1.2659213.7484275,2.2514632,1.8140377,2.9566258,3.2004828.7012294,1.3864451,1.0557772,3.0535505,1.0557772,5.0044066,0,1.951137-.3545479,3.6216137-1.0557772,5.0212631-.7051626,1.396559-1.6907045,2.4689118-2.9566258,3.213968-1.2698545.7484275-2.7363678,1.1226413-4.4034732,1.1226413-1.6704767,0-3.1369901-.3742138-4.4029114-1.1226413-1.2659213-.7450562-2.2548345-1.817409-2.9566258-3.213968-.7051626-1.3996493-1.0557772-3.070126-1.0557772-5.0212631,0-1.9508561.3506147-3.6179615,1.0557772-5.0044066Z"/>
  <path class="st3" d="M757.9170123,203.5387462h4.67711l4.6136173,9.3910234h3.2173393l-4.9709746-9.7784413c1.6266499-.4778811,2.8228977-1.2895204,3.5909911-2.438851.7686553-1.1459594,1.1529829-2.4354797,1.1529829-3.8654707,0-1.2361415-.2708274-2.3618731-.8119202-3.3808471-.5410929-1.0156026-1.3766122-1.817409-2.5026247-2.4020477-1.1254507-.5846388-2.5756694-.8787842-4.3529038-.8787842h-7.3432425v22.7444422h2.7296252v-9.3910234ZM757.9170123,192.4941026h4.3866168c1.7974622,0,3.0903538.3941606,3.8820463,1.185853.7916925.7886021,1.186134,1.8575836,1.186134,3.2004828,0,1.3195811-.4011841,2.4020477-1.2029905,3.2474-.8018063.8450713-2.0778415,1.2659213-3.8320387,1.2659213h-4.4197678v-8.8996571Z"/>
  <polygon class="st3" points="793.0256791 209.6792792 800.6296352 195.0596581 800.6296352 212.9297695 803.3586985 212.9297695 803.3586985 190.1853274 800.1419211 190.1853274 792.0199094 206.0410899 783.8315956 190.1853274 780.6479693 190.1853274 780.6479693 212.9297695 783.3775945 212.9297695 783.3775945 195.0930901 790.9809887 209.6792792 793.0256791 209.6792792"/>
  <path class="st3" d="M815.6532498,212.9297695l2.1115545-5.8497588h9.6812357l2.0817747,5.8497588h2.8897618l-8.3490122-22.7444422h-2.8931331l-8.3821633,22.7444422h2.859982ZM822.6054221,193.6299481l4.0292595,11.2418644h-8.058519l4.0292595-11.2418644Z"/>
  <polygon class="st3" points="856.7015766 208.413077 844.581209 190.1853274 841.8521456 190.1853274 841.8521456 212.9297695 844.581209 212.9297695 844.581209 194.7023009 856.7015766 212.9297695 859.4312019 212.9297695 859.4312019 190.1853274 856.7015766 190.1853274 856.7015766 208.413077"/>
  <path class="st3" d="M876.3657789,193.3225984c1.2131043-.7484275,2.6324196-1.1226413,4.25626-1.1226413,1.8210612,0,3.2673468.4275926,4.3399805,1.2830587,1.0720718.8551852,1.7806057,1.9876594,2.1278491,3.3974226h3.0201185c-.4540011-2.2315164-1.5002263-3.9722284-3.1336188-5.2151125-1.6367638-1.2459745-3.7550608-1.8707878-6.3543293-1.8707878-2.2317973,0-4.1523118.5011992-5.7660383,1.4965741-1.6137266.9956558-2.8667246,2.3756393-3.7516895,4.1427598-.8888981,1.7640301-1.3333472,3.8050684-1.3333472,6.1236766,0,2.338555.4444491,4.3933594,1.3333472,6.1573895.884965,1.7671205,2.137963,3.1403614,3.7516895,4.1259033s3.534241,1.4799985,5.7660383,1.4799985c2.5992685,0,4.7175656-.6180708,6.3543293-1.8542123,1.6333925-1.2327702,2.6796177-2.9434215,3.1336188-5.131673h-3.0201185c-.3472434,1.3864451-1.0557772,2.4956012-2.1278491,3.3308395-1.0726337.8318671-2.5189193,1.2496267-4.3399805,1.2496267-1.6238405,0-3.0431557-.3742138-4.25626-1.1226413-1.2125425-.7450562-2.1480768-1.817409-2.8094126-3.213968-.6613357-1.3996493-.9922845-3.070126-.9922845-5.0212631,0-1.9508561.3309488-3.6213328.9922845-5.0212631.6613357-1.396278,1.5968701-2.4689118,2.8094126-3.213687Z"/>
  <polygon class="st3" points="900.2794986 212.9297695 914.3479129 212.9297695 914.3479129 210.6881393 903.0091238 210.6881393 903.0091238 202.5664085 913.3724849 202.5664085 913.3724849 200.3548389 903.0091238 200.3548389 903.0091238 192.4272386 914.3479129 192.4272386 914.3479129 190.1853274 900.2794986 190.1853274 900.2794986 212.9297695"/>
  <path class="st3" d="M522.148301,246.7255979c-.8652991-.521146-1.8407271-.975709-2.9229128-1.3664983-1.2996342-.4309639-2.4492459-.8150106-3.4443398-1.152421-.9956558-.3340392-1.7710537-.7616317-2.3222604-1.2830587-.554578-.521146-.8282148-1.2659213-.8282148-2.2416303,0-1.1493307.3938796-2.0477808,1.1855721-2.6961932.788883-.6512218,1.8008334-.9653142,3.036975-.941996.9956558,0,1.8244325.1938495,2.4857682.5846388.6613357.3876989,1.152421.8919885,1.4799985,1.5100593.3242062.6180708.4843427,1.2395128.4843427,1.8674165h2.859982c-.0202278-1.2125425-.3309488-2.2950091-.9254205-3.247119-.5950336-.9554812-1.429991-1.7005374-2.5026247-2.2450016-1.0720718-.5413738-2.3318124-.8119202-3.7848406-.8119202-1.4732559,0-2.7464817.2671751-3.8185535.798435-1.0692624.5312599-1.8980391,1.2662022-2.4857682,2.2084792-.5843578.941996-.8652991,2.0210914-.8417,3.2336339,0,1.4502188.42085,2.6259579,1.2659213,3.524689.8450713.8987311,2.1447055,1.6502489,3.8989027,2.2584868.9321631.3239253,1.8238706.6180708,2.6790558.875132.8551852.2607135,1.6137266.5646919,2.2750623.9122163.6618976.3475243,1.186134.7950638,1.5772042,1.3462705.3910702.554578.5843578,1.28643.5843578,2.194994,0,1.1057848-.4242213,2.0244627-1.2659213,2.7627763-.8450713.7349423-2.0379479,1.1024135-3.5746965,1.1024135-1.1692775,0-2.1514481-.2202579-2.9397693-.664707-.7916925-.4444491-1.3934686-1.0389208-1.8042047-1.7873483s-.6180708-1.5634381-.6180708-2.4520553h-2.859982c0,1.4297101.3376914,2.6857984,1.009141,3.7682651s1.6238405,1.9278189,2.859982,2.5324045c1.2327702.6079569,2.6824271.9122163,4.3529038.9122163,1.7103704,0,3.1336188-.3042594,4.2731165-.9122163,1.1355646-.6045856,1.9840071-1.3898164,2.5486991-2.3551305.5646919-.9622238.8450713-1.9879403.8450713-3.070407,0-1.2763161-.243857-2.3284411-.731571-3.1501943-.487714-.8254054-1.1625349-1.496855-2.0312053-2.0146297Z"/>
  <path class="st3" d="M545.1163724,258.2281757c2.2520251,0,4.2197377-.4944566,5.896957-1.4799985,1.6805906-.9855419,2.9864055-2.3655254,3.9151973-4.1427598.9321631-1.7738631,1.3996493-3.8219248,1.3996493-6.140533s-.4674862-4.3596464-1.3996493-6.1236766c-.9287918-1.7671205-2.2346067-3.1471039-3.9151973-4.1424788-1.6772193-.9956558-3.6449319-1.496855-5.896957-1.496855-2.2312355,0-4.1860247.5011992-5.8626821,1.496855-1.6805906.9953749-2.9903387,2.3753583-3.9320538,4.1424788-.942277,1.7640301-1.4136964,3.8050684-1.4136964,6.1236766s.4714194,4.3666699,1.4136964,6.140533c.9417151,1.7772344,2.2514632,3.1572178,3.9320538,4.1427598,1.6766574.9855419,3.6314467,1.4799985,5.8626821,1.4799985ZM537.7568353,251.4861475c-.7017913-1.3996493-1.0557772-3.070126-1.0557772-5.0212631,0-1.9508561.353986-3.6179615,1.0557772-5.0044066.7046007-1.3864451,1.6901426-2.4520553,2.9566258-3.2004828,1.2692926-.7450562,2.7363678-1.11927,4.4029114-1.11927,1.6671054,0,3.1375519.3742138,4.4034732,1.11927,1.2659213.7484275,2.2514632,1.8140377,2.9566258,3.2004828s1.0557772,3.0535505,1.0557772,5.0044066c0,1.951137-.3506147,3.6216137-1.0557772,5.0212631-.7051626,1.396559-1.6907045,2.4689118-2.9566258,3.213968-1.2659213.7484275-2.7363678,1.1226413-4.4034732,1.1226413-1.6665435,0-3.1336188-.3742138-4.4029114-1.1226413-1.2664832-.7450562-2.2520251-1.817409-2.9566258-3.213968Z"/>
  <polygon class="st3" points="580.4627156 237.3345745 580.4627156 235.0926633 566.6179305 235.0926633 566.6179305 257.8371055 569.3475557 257.8371055 569.3475557 247.5372372 578.805724 247.5372372 578.805724 245.3290389 569.3475557 245.3290389 569.3475557 237.3345745 580.4627156 237.3345745"/>
  <polygon class="st3" points="598.7064788 257.8371055 598.7064788 237.3345745 605.4985146 237.3345745 605.4985146 235.0926633 589.1853797 235.0926633 589.1853797 237.3345745 595.9774155 237.3345745 595.9774155 257.8371055 598.7064788 257.8371055"/>
  <polygon class="st3" points="623.3787399 257.8371055 628.9346342 239.0584301 634.3601717 257.8371055 637.4803053 257.8371055 643.8481198 235.0926633 640.9246451 235.0926633 635.9536705 254.6197663 630.528133 235.0926633 627.5046432 235.0926633 621.9189692 254.6197663 617.0109254 235.0926633 614.0880126 235.0926633 620.3254704 257.8705375 623.3787399 257.8371055"/>
  <path class="st3" d="M653.0084904,257.8371055l2.1115545-5.8497588h9.6817976l2.0812128,5.8497588h2.8897618l-8.3490122-22.7444422h-2.8931331l-8.3816014,22.7444422h2.8594201ZM659.9606627,238.5372841l4.0292595,11.2418644h-8.0579571l4.0286976-11.2418644Z"/>
  <path class="st3" d="M693.0516095,245.6198131c.7680934-1.1459594,1.152421-2.4354797,1.152421-3.8654707,0-1.2361415-.2702655-2.3618731-.8113583-3.3808471-.5416547-1.0156026-1.3766122-1.817409-2.5026247-2.4020477-1.1260126-.5846388-2.5756694-.8787842-4.3529038-.8787842h-7.3432425v22.7444422h2.7296252v-9.3910234h4.67711l4.6136173,9.3910234h3.2173393l-4.9715365-9.7784413c1.6272118-.4778811,2.8234596-1.2895204,3.591553-2.438851ZM686.3432942,246.3013766h-4.4197678v-8.899938h4.3860549c1.7974622,0,3.0903538.3941606,3.8826082,1.185853.7916925.7886021,1.1855721,1.8575836,1.1855721,3.2004828,0,1.3195811-.4006222,2.4020477-1.2024286,3.2474-.8018063.8450713-2.0778415,1.2662022-3.8320387,1.2662022Z"/>
  <polygon class="st3" points="718.7223358 255.5954752 707.3835467 255.5954752 707.3835467 247.4737445 717.7469077 247.4737445 717.7469077 245.2621749 707.3835467 245.2621749 707.3835467 237.3345745 718.7223358 237.3345745 718.7223358 235.0926633 704.6544833 235.0926633 704.6544833 257.8371055 718.7223358 257.8371055 718.7223358 255.5954752"/>
  <polygon class="st3" points="757.1286911 237.3345745 757.1286911 235.0926633 743.2844679 235.0926633 743.2844679 257.8371055 746.0135313 257.8371055 746.0135313 247.5372372 755.4716996 247.5372372 755.4716996 245.3290389 746.0135313 245.3290389 746.0135313 237.3345745 757.1286911 237.3345745"/>
  <path class="st3" d="M770.7223147,256.7481772c1.6772193.9855419,3.6314467,1.4799985,5.863244,1.4799985,2.2514632,0,4.2191758-.4944566,5.8963951-1.4799985,1.6805906-.9855419,2.9869674-2.3655254,3.9157592-4.1427598.9321631-1.7738631,1.3996493-3.8219248,1.3996493-6.140533s-.4674862-4.3596464-1.3996493-6.1236766c-.9287918-1.7671205-2.2351686-3.1471039-3.9157592-4.1424788-1.6772193-.9956558-3.6449319-1.496855-5.8963951-1.496855-2.2317973,0-4.1860247.5011992-5.863244,1.496855-1.6800287.9953749-2.9897768,2.3753583-3.9320538,4.1424788-.942277,1.7640301-1.4131345,3.8050684-1.4131345,6.1236766s.4708575,4.3666699,1.4131345,6.140533c.942277,1.7772344,2.2520251,3.1572178,3.9320538,4.1427598ZM769.2254597,241.4604778c.7051626-1.3864451,1.6907045-2.4520553,2.9566258-3.2004828,1.2698545-.7450562,2.7363678-1.11927,4.4034732-1.11927s3.1369901.3742138,4.4034732,1.11927c1.2659213.7484275,2.2514632,1.8140377,2.9566258,3.2004828.7046007,1.3864451,1.0552154,3.0535505,1.0552154,5.0044066,0,1.951137-.3506147,3.6216137-1.0552154,5.0212631-.7051626,1.396559-1.6907045,2.4689118-2.9566258,3.213968-1.2664832.7484275-2.7363678,1.1226413-4.4034732,1.1226413s-3.1336188-.3742138-4.4034732-1.1226413c-1.2659213-.7450562-2.2514632-1.817409-2.9566258-3.213968-.7012294-1.3996493-1.0552154-3.070126-1.0552154-5.0212631,0-1.9508561.353986-3.6179615,1.0552154-5.0044066Z"/>
  <path class="st3" d="M802.0393984,257.3027552c1.2692926.6146995,2.6824271.9254205,4.2427748.9254205,1.5800136,0,3.0100046-.310721,4.2860398-.9254205,1.2799684-.6180708,2.2986614-1.5769233,3.0572027-2.8765575.7551701-1.2996342,1.1355646-2.9566258,1.1355646-4.9712555v-14.3622789h-2.7290634v14.3957109c0,2.2084792-.521427,3.8120919-1.5603477,4.8074668-1.0389208.9956558-2.4155329,1.4932028-4.1259033,1.4932028s-3.0970964-.497547-4.1590544-1.4932028c-1.0625198-.9953749-1.5906894-2.5989876-1.5906894-4.8074668v-14.3957109h-2.7290634v14.3622789c0,2.0146297.377585,3.6716213,1.1355646,4.9712555.7585414,1.2996342,1.7704918,2.2584868,3.036975,2.8765575Z"/>
  <polygon class="st3" points="840.7525415 253.3204129 828.6321739 235.0926633 825.9025486 235.0926633 825.9025486 257.8371055 828.6321739 257.8371055 828.6321739 239.6096368 840.7525415 257.8371055 843.4821668 257.8371055 843.4821668 235.0926633 840.7525415 235.0926633 840.7525415 253.3204129"/>
  <path class="st3" d="M854.7776909,235.0926633v22.7444422h6.9853234c4.0056604,0,6.9589149-1.0122313,8.8535827-3.036694,1.8941059-2.0281149,2.8425636-4.7841486,2.8425636-8.2720343,0-3.5513784-.9484577-6.3442154-2.8425636-8.3818824-1.8946678-2.0345766-4.8479223-3.0538315-8.8535827-3.0538315h-6.9853234ZM869.7878203,241.6239856c.5646919,1.363127.8450713,3.0001717.8450713,4.9043915,0,1.8643262-.2803794,3.4744005-.8450713,4.8274136-.5613206,1.3530131-1.5002263,2.3922148-2.8094126,3.1170432-1.3097481.7284807-3.070126,1.0892092-5.2788862,1.0892092h-4.1927673v-18.1940367h4.1927673c2.2087602,0,3.9691381.3674712,5.2788862,1.1057848,1.3091863.7349423,2.2480919,1.783977,2.8094126,3.1501943Z"/>
  <path class="st3" d="M881.0530028,257.8371055h2.859982l2.1109926-5.8497588h9.6817976l2.0817747,5.8497588h2.8897618l-8.3490122-22.7444422h-2.8931331l-8.3821633,22.7444422ZM894.8938547,249.7791484h-8.0579571l4.0292595-11.2418644,4.0286976,11.2418644Z"/>
  <polygon class="st3" points="906.0826212 237.3345745 912.874657 237.3345745 912.874657 257.8371055 915.6037203 257.8371055 915.6037203 237.3345745 922.3957561 237.3345745 922.3957561 235.0926633 906.0826212 235.0926633 906.0826212 237.3345745"/>
  <rect class="st3" x="931.7971743" y="235.0926633" width="2.7290634" height="22.7444422"/>
  <path class="st3" d="M950.1948934,256.7481772c1.6805906.9855419,3.634818,1.4799985,5.8666153,1.4799985,2.2514632,0,4.2158045-.4944566,5.8963951-1.4799985,1.6772193-.9855419,2.9835961-2.3655254,3.9151973-4.1427598.9321631-1.7738631,1.3968399-3.8219248,1.3968399-6.140533s-.4646768-4.3596464-1.3968399-6.1236766c-.9316012-1.7671205-2.237978-3.1471039-3.9151973-4.1424788-1.6805906-.9956558-3.6449319-1.496855-5.8963951-1.496855-2.2317973,0-4.1860247.5011992-5.8666153,1.496855-1.6772193.9953749-2.9903387,2.3753583-3.9320538,4.1424788-.942277,1.7640301-1.4131345,3.8050684-1.4131345,6.1236766s.4708575,4.3666699,1.4131345,6.140533c.9417151,1.7772344,2.2548345,3.1572178,3.9320538,4.1427598ZM948.7014097,241.4604778c.7017913-1.3864451,1.6907045-2.4520553,2.9566258-3.2004828,1.2659213-.7450562,2.7329965-1.11927,4.4034732-1.11927,1.6665435,0,3.1336188.3742138,4.4029114,1.11927,1.2664832.7484275,2.2520251,1.8140377,2.9566258,3.2004828.7017913,1.3864451,1.0557772,3.0535505,1.0557772,5.0044066,0,1.951137-.353986,3.6216137-1.0557772,5.0212631-.7046007,1.396559-1.6901426,2.4689118-2.9566258,3.213968-1.2692926.7484275-2.7363678,1.1226413-4.4029114,1.1226413-1.6704767,0-3.1375519-.3742138-4.4034732-1.1226413-1.2659213-.7450562-2.2548345-1.817409-2.9566258-3.213968-.7051626-1.3996493-1.0557772-3.070126-1.0557772-5.0212631,0-1.9508561.3506147-3.6179615,1.0557772-5.0044066Z"/>
  <polygon class="st3" points="980.2921301 239.6096368 992.4130597 257.8371055 995.142123 257.8371055 995.142123 235.0926633 992.4130597 235.0926633 992.4130597 253.3204129 980.2921301 235.0926633 977.5630668 235.0926633 977.5630668 257.8371055 980.2921301 257.8371055 980.2921301 239.6096368"/>
  <polygon class="st3" points="538.7755283 98.7237778 583.6261141 98.7237778 583.6261141 146.8214826 611.4117662 146.8214826 611.4117662 31.7737908 583.6261141 31.7737908 583.6261141 75.3247424 538.7755283 75.3247424 538.7755283 31.7737908 510.9898762 31.7737908 510.9898762 146.8214826 538.7755283 146.8214826 538.7755283 98.7237778"/>
  <path class="st3" d="M662.2228017,103.4343198h13.8138815c5.9565165,0,11.6995177-.6481315,17.2222609-1.9477657,5.5255526-1.2996342,10.3998834-3.3575289,14.6258018-6.1770554,4.223109-2.8130648,7.580357-6.5248607,10.0762391-11.1283641,2.4885776-4.6035034,3.7348331-10.263065,3.7348331-16.9814942,0-6.6080193-1.1659062-12.1605423-3.4943473-16.657288-2.3284411-4.4933744-5.5227432-8.1248211-9.5851538-10.8875974-4.0624106-2.759686-8.8294218-4.7642018-14.3021575-6.0101763-5.4688025-1.2462554-11.3483411-1.8707878-17.6290638-1.8707878h-42.2485079v115.0476918h27.786214v-43.3871628ZM662.2228017,54.2007694h12.1872317c2.4919489,0,4.9007393.1601365,7.2325517.487714,2.3284411.3239253,4.4102158.9720567,6.2543142,1.9474848,1.8407271.975709,3.3038692,2.3318124,4.3866168,4.0624106,1.0821857,1.7339694,1.6266499,3.9556529,1.6266499,6.6616791,0,2.7093975-.5444642,4.9577703-1.6266499,6.7451186-1.0827476,1.7873483-2.57286,3.2238009-4.466966,4.3062676-1.8974772,1.0824667-4.0354402,1.8443793-6.417822,2.2753432-2.3851913.4343352-4.8777021.6478505-7.4764087.6478505h-11.6995177v-27.1338684Z"/>
  <path class="st3" d="M781.3660551,124.0739501c-1.4631421.9720567-3.1701411,1.6803097-5.1215591,2.1112735-1.9474848.4343352-3.955091.6481315-6.0098953.6481315-4.5501246,0-9.1272195-1.1625349-13.7307229-3.490976-4.6068747-2.3287221-8.3152993-5.2252264-11.1314544-8.6962556l-18.2010602,18.5249855c5.0912174,5.308385,11.482631,9.4008563,19.1764882,12.2706712,7.6904859,2.8664436,15.6517992,4.3062676,23.8867493,4.3062676,5.6295009,0,11.1016747-.7616317,16.4103406-2.2750623,5.308666-1.5168018,10.0189271-3.845243,14.1380878-6.9889756,4.1157894-3.1403614,7.3932501-7.1227037,9.8323821-11.9433747,2.4351988-4.8175807,3.6544839-10.5336114,3.6544839-17.1419117,0-5.7427202-1.1355646-10.5369827-3.4106268-14.3822257-2.2750623-3.845243-5.1485295-7.0690439-8.613097-9.6683124-3.467377-2.5989876-7.3129009-4.6838526-11.5388193-6.2574046-4.223109-1.5668094-8.2855195-3.003262-12.1872317-4.3062676-2.7093975-.8652991-5.1451582-1.7036278-7.3100915-2.515548-2.1677427-.8152915-4.0388115-1.70728-5.6059018-2.6827081-1.573271-.975709-2.7627763-2.1112735-3.5780678-3.4109078-.8119202-1.3030055-1.2159138-2.9265651-1.2159138-4.8777021,0-2.2750623.5113131-4.1427598,1.5434913-5.6059018,1.0288069-1.4597708,2.2986614-2.6526473,3.8185535-3.5746965,1.5137115-.9186779,3.2207106-1.5434913,5.1181878-1.8674165,1.8941059-.3242062,3.7618034-.487995,5.6059018-.487995,3.5746965,0,7.2831211.8956407,11.1314544,2.682989,3.8421526,1.7873483,6.9589149,4.199229,9.3446681,7.2294613l17.709413-18.685122c-5.0912174-4.6574441-11.0246968-8.1784809-17.7931335-10.5639531-6.771808-2.38182-13.4065167-3.5746965-19.904688-3.5746965-5.4187949,0-10.7808398.6781922-16.0861344,2.0312053-5.3120373,1.3563844-10.0756772,3.4946283-14.3021575,6.417822-4.2225471,2.9265651-7.6371071,6.6616791-10.2358137,11.2118036-2.5992685,4.5501246-3.8989027,10.0225793-3.8989027,16.413431,0,5.1982561.8383287,9.6149335,2.5189193,13.2430089,1.6772193,3.6314467,3.8989027,6.7184292,6.6616791,9.2606666,2.7627763,2.549261,5.9031377,4.6338451,9.4244554,6.2576855,3.5179464,1.6235595,7.1224227,3.0333227,10.8038769,4.2259184,3.7921451,1.1928766,7.1763634,2.3020327,10.1560264,3.3308395,2.9802248,1.0290878,5.4693644,2.1683046,7.4769706,3.4109078,2.0014255,1.2462554,3.5449168,2.6293292,4.6304738,4.1427598,1.0821857,1.5201731,1.6238405,3.3609002,1.6238405,5.5258336,0,2.2750623-.4343352,4.2259184-1.2996342,5.8497588-.8686704,1.6269308-2.0312053,2.9262841-3.4915379,3.9019931Z"/>
  <polygon class="st3" points="858.8732525 102.1346855 903.3962609 102.1346855 903.3962609 79.2233642 858.8732525 79.2233642 858.8732525 55.5001227 907.1350271 55.5001227 907.1350271 31.7737908 831.4118067 31.7737908 831.4118067 146.8214826 858.8732525 146.8214826 858.8732525 102.1346855"/>
</svg>